<?xml version="1.0" encoding="UTF-8"?>
<svg width="43px" height="36px" viewBox="0 0 43 36" version="1.1" xmlns="http://www.w3.org/2000/svg" xmlns:xlink="http://www.w3.org/1999/xlink">
    <!-- Generator: Sketch 58 (84663) - https://sketch.com -->
    <title>icon_heart</title>
    <desc>Created with Sketch.</desc>
    <g id="首頁" stroke="none" stroke-width="1" fill="none" fill-rule="evenodd">
        <g id="專案介紹-hover" transform="translate(-482.000000, -2231.000000)" fill-rule="nonzero">
            <g id="form" transform="translate(141.000000, 2231.000000)">
                <g id="贊助表單">
                    <g id="title" transform="translate(2.000000, 0.000000)">
                        <g id="icon_heart" transform="translate(339.000000, 0.000000)">
                            <path d="M22.1491274,7.76610849 C22.1491274,7.76610849 26.1385613,3.48912736 27.5830896,2.79403302 C29.0276179,2.10120283 34.5045991,0.0476179245 38.4147877,4.34044811 C42.3249764,8.6332783 41.403467,14.2438443 40.2442217,15.8332783 C39.0849764,17.4227123 35.0842217,21.4370519 35.0842217,21.4370519 L22.1491274,7.76610849 L22.1491274,7.76610849 Z" id="Path" fill="#FFDF65"></path>
                            <path d="M39.3747877,3.38044811 C35.0502594,-0.944080189 28.1989387,-1.13200472 24.1053538,2.96158019 L21.3159198,5.75101415 L18.9476179,3.38044811 C14.6230896,-0.944080189 7.58384434,-0.944080189 3.25931604,3.38044811 C-1.06521226,7.70497642 -1.06521226,14.7442217 3.25931604,19.06875 L19.3370519,35.1464858 C19.8645991,35.6762972 20.56875,35.9661085 21.3159198,35.9661085 C22.0630896,35.9661085 22.7672406,35.674033 23.2947877,35.1464858 L24.678184,33.7630896 L24.6804481,33.7630896 L39.7936557,18.6498821 C43.8895047,14.5562972 43.7015802,7.70497642 39.3747877,3.38044811 Z M21.3159198,33.2491274 C21.2819575,33.2491274 21.2638443,33.2310142 21.2570519,33.2242217 L5.17931604,17.1464858 C1.91441038,13.8815802 1.91441038,8.56761792 5.17931604,5.30044811 C6.81176887,3.66799528 8.95818396,2.85063679 11.1023349,2.85063679 C13.2464858,2.85063679 15.3929009,3.66799528 17.0253538,5.30044811 L33.1619575,21.4370519 L30.1755425,24.423467 L26.1702594,20.1872406 C25.6548874,19.6424531 24.7956188,19.6181342 24.2502594,20.1329009 C23.705472,20.648273 23.6811531,21.5075415 24.1959198,22.0529009 L28.2532783,26.343467 L26.0321462,28.5645991 L21.9476179,24.2445991 C21.4322459,23.6998116 20.5729773,23.6754927 20.0276179,24.1902594 C19.4828305,24.7056315 19.4585116,25.5649 19.9732783,26.1102594 L24.1098821,30.4845991 L21.3747877,33.2196934 C21.3679953,33.2332783 21.3521462,33.2491274 21.3159198,33.2491274 L21.3159198,33.2491274 Z M37.8736557,16.7276179 L35.0842217,19.5170519 L23.238184,7.67101415 L26.0276179,4.88158019 C29.0615802,1.84761792 34.1876179,2.03554245 37.4547877,5.30044811 C40.7196934,8.56761792 40.9076179,13.6936557 37.8736557,16.7276179 Z" id="Shape" fill="#636057"></path>
                        </g>
                    </g>
                </g>
            </g>
        </g>
    </g>
</svg>