<?xml version="1.0" encoding="UTF-8"?>
<svg width="20px" height="20px" viewBox="0 0 20 20" version="1.1" xmlns="http://www.w3.org/2000/svg" xmlns:xlink="http://www.w3.org/1999/xlink">
    <!-- Generator: Sketch 58 (84663) - https://sketch.com -->
    <title>icon_good04</title>
    <desc>Created with Sketch.</desc>
    <g id="首頁" stroke="none" stroke-width="1" fill="none" fill-rule="evenodd">
        <g id="專案介紹-mobile" transform="translate(-299.000000, -643.000000)" fill-rule="nonzero">
            <g id="mobile-top">
                <g id="product-sm">
                    <g transform="translate(0.000000, 65.000000)">
                        <g id="product_info">
                            <g transform="translate(12.000000, 388.457008)">
                                <g id="icon_good-group" transform="translate(0.000000, 189.222615)">
                                    <g id="Group-5" transform="translate(287.000000, 1.001178)">
                                        <g id="icon_good04">
                                            <path d="M15.1054436,14.4169611 L5.01080269,14.4169611 C3.88708844,14.4169611 2.90545301,13.7104404 2.62246959,12.6976877 L1.66666667,9.61130742 L18.3333333,9.61130742 L17.512564,12.6287855 C17.2554131,13.6754424 16.2573388,14.4169611 15.1054436,14.4169611 Z" id="Path" fill="#FFDF65"></path>
                                            <path d="M19.3654113,3.47870349 C18.8678251,3.15278503 18.2282363,3.15838501 17.7364226,3.49214342 L15.2635,5.17213545 C15.2415647,5.18781537 15.2103934,5.1833354 15.193076,5.16317549 L11.1084821,0.492797661 C10.8348674,0.180319144 10.4354131,0 10.0117144,0 L10.0094054,0 C9.58570672,0.00111999468 9.18509788,0.181439139 8.91263769,0.496157645 L4.88576844,5.13293563 C4.86845106,5.15197554 4.83843426,5.15645552 4.8164989,5.14301559 L2.22581811,3.49998339 C1.73515887,3.18862486 1.10596055,3.19646483 0.623382754,3.5190233 C0.141553903,3.83894582 -0.0918600364,4.41058305 0.0334371725,4.96381644 L1.92103213,13.4085764 C2.11729583,14.2877722 2.93352191,14.9272891 3.86173374,14.9272891 L16.0150745,14.9272891 C16.9455953,14.9272891 17.742195,14.3124121 17.9500037,13.4332162 L19.9622838,4.94925651 C20.0973594,4.3814192 19.8629975,3.80350195 19.3654113,3.47870349 Z M18.6126823,4.64685794 L16.5992476,13.1308177 C16.5374852,13.3958755 16.294032,13.5836071 16.01392,13.5821837 L3.86173374,13.5821837 C3.58119211,13.5821837 3.33413075,13.3895364 3.27525164,13.1229777 L1.38765668,4.67821779 C1.3841932,4.66141787 1.38072972,4.64461795 1.40959203,4.62557804 C1.42229145,4.61773808 1.43152739,4.6143781 1.44076332,4.6143781 C1.45230825,4.6143781 1.46038969,4.61997807 1.46847114,4.62445805 L4.05799744,6.26749025 C4.66526041,6.65276842 5.47686851,6.53740897 5.94443791,5.99869153 L9.97130716,1.36303353 C9.97592513,1.35855355 9.98747005,1.34511362 10.0117144,1.34511362 C10.0359587,1.34511362 10.0475037,1.35855355 10.0521216,1.36303353 L14.1367155,6.03341136 C14.6204478,6.58556874 15.4459098,6.68972825 16.0577907,6.27421022 L18.5307133,4.59421819 C18.5457217,4.58413824 18.5595756,4.57405829 18.5907469,4.59421819 C18.6207637,4.61213811 18.6173002,4.62893803 18.6126823,4.64685794 Z M17.2757801,17.0776789 L2.72686778,17.0776789 C2.34473082,17.0776789 2.03417238,17.3789575 2.03417238,17.7496757 C2.03417238,18.120394 2.34473082,18.4216726 2.72686778,18.4216726 L17.2746256,18.4216726 C17.6567626,18.4216726 17.967321,18.120394 17.967321,17.7496757 C17.967321,17.3789575 17.6579171,17.0776789 17.2757801,17.0776789 Z" id="Shape" fill="#636057"></path>
                                        </g>
                                    </g>
                                </g>
                            </g>
                        </g>
                    </g>
                </g>
            </g>
        </g>
    </g>
</svg>