<?xml version="1.0" encoding="UTF-8"?>
<svg width="20px" height="21px" viewBox="0 0 20 21" version="1.1" xmlns="http://www.w3.org/2000/svg" xmlns:xlink="http://www.w3.org/1999/xlink">
    <!-- Generator: Sketch 58 (84663) - https://sketch.com -->
    <title>icon_good01</title>
    <desc>Created with Sketch.</desc>
    <g id="首頁" stroke="none" stroke-width="1" fill="none" fill-rule="evenodd">
        <g id="專案介紹-mobile" transform="translate(-12.000000, -642.000000)" fill-rule="nonzero">
            <g id="mobile-top">
                <g id="product-sm">
                    <g transform="translate(0.000000, 65.000000)">
                        <g id="product_info">
                            <g transform="translate(12.000000, 388.457008)">
                                <g id="icon_good-group" transform="translate(0.000000, 189.222615)">
                                    <g id="Group-10">
                                        <g id="icon_good01">
                                            <path d="M6.66666667,8.00942285 C6.66666667,9.77881569 8.15905083,11.213192 10,11.213192 C11.8409492,11.213192 13.3333333,9.77881569 13.3333333,8.00942285 C13.3333333,6.24003001 11.8409492,4.80565371 10,4.80565371 C8.15905083,4.80565371 6.66666667,6.24003001 6.66666667,8.00942285 Z" id="Path" fill="#FFDF65"></path>
                                            <path d="M10,12.0141343 C7.7031159,12.0141343 5.83333333,10.2170288 5.83333333,8.00942285 C5.83333333,5.80065074 7.7031159,4.00471143 10,4.00471143 C12.2980975,4.00471143 14.1666667,5.80181693 14.1666667,8.00942285 C14.1666667,10.2170288 12.2980975,12.0141343 10,12.0141343 Z M10,5.40414465 C8.50514463,5.40414465 7.28936129,6.5726714 7.28936129,8.00942285 C7.28936129,9.4461743 8.50514463,10.614701 10,10.614701 C11.4948554,10.614701 12.7106387,9.4461743 12.7106387,8.00942285 C12.7106387,6.5726714 11.4948554,5.40414465 10,5.40414465 Z" id="Shape" fill="#636057"></path>
                                            <path d="M19.8411143,18.2437106 L16.7220523,12.831478 C17.6864612,11.5014204 18.2568106,9.87604681 18.2568106,8.12005275 C18.2568106,3.64260864 14.5616381,0 10.0195832,0 C5.47752829,0 1.78235578,3.64260864 1.78235578,8.12005275 C1.78235578,9.86241684 2.34463959,11.4775679 3.29637408,12.8019464 L0.160028721,18.2437106 C-0.0554365923,18.616263 -0.0531321504,19.0603728 0.165789825,19.4317894 C0.384711801,19.8020702 0.775314694,20.0235571 1.2108542,20.0235571 L6.70810023,20.0235571 C7.24849185,20.0235571 7.74625129,19.7339203 8.00665322,19.2659581 L9.69811353,16.2310189 C9.80411786,16.2355622 9.91012218,16.2389697 10.018431,16.2389697 C10.1129131,16.2389697 10.206243,16.2355622 10.3007251,16.2321547 L11.9921854,19.2659581 C12.2525873,19.7327845 12.7503468,20.0235571 13.2907384,20.0235571 L18.7879844,20.0235571 C19.2235239,20.0235571 19.6141268,19.8020702 19.8330488,19.4317894 C20.053123,19.0615086 20.0554274,18.6173989 19.8411143,18.2437106 L19.8411143,18.2437106 Z M10.0195832,1.36299668 C13.7988678,1.36299668 16.8741455,4.39452848 16.8741455,8.12005275 C16.8741455,9.74883379 16.2865128,11.2458585 15.3082772,12.4134923 C15.3059728,12.4168998 15.3025161,12.4203073 15.3002117,12.4237148 C15.1629698,12.5877911 15.0176139,12.7451049 14.8646722,12.8950845 L14.8519977,12.9075786 C14.7794078,12.9780001 14.7056657,13.0472858 14.6307713,13.1154356 C14.5627903,13.1756346 14.4948092,13.2346978 14.4245238,13.2914893 C14.4118493,13.3017118 14.4003271,13.3130701 14.3876527,13.3232926 C13.3264572,14.1865238 12.0140776,14.728315 10.6348691,14.848713 L10.6337169,14.848713 C10.430926,14.8668863 10.2258307,14.8771088 10.018431,14.8771088 C9.79950897,14.8771088 9.58289144,14.8657505 9.36857835,14.8464414 C7.99397879,14.7192284 6.68736026,14.1740297 5.63192589,13.3085268 C5.61003369,13.2903535 5.5881415,13.2710444 5.5662493,13.2528711 C5.50633381,13.2028946 5.44757054,13.1517822 5.38880728,13.099534 C5.34271844,13.0575082 5.29778182,13.0143467 5.25169299,12.9711851 L5.15490643,12.8791828 C5.09959982,12.824663 5.04659766,12.7678714 4.99244328,12.7110799 C4.9717033,12.6894991 4.95096332,12.6667825 4.93022335,12.6452017 C4.87491674,12.5838669 4.82076236,12.522532 4.76660798,12.4589255 L4.71245359,12.395319 C3.7434358,11.2299568 3.16156423,9.74088297 3.16156423,8.12005275 C3.16502089,4.39452848 6.24029854,1.36299668 10.0195832,1.36299668 L10.0195832,1.36299668 Z M8.22672741,16.0436068 L6.79566902,18.6094481 C6.77838571,18.6412513 6.7449713,18.6605604 6.70810023,18.6605604 L1.51043164,18.6605604 L4.24810856,13.9082453 C4.32530736,13.9820743 4.40365839,14.0547675 4.48316163,14.125189 C4.48546607,14.1274606 4.48777051,14.1285965 4.48892273,14.1308681 C4.57073042,14.2035613 4.65369033,14.2739828 4.73665023,14.3432684 C4.77006464,14.3716642 4.80463127,14.3989241 4.83919789,14.4261841 C4.88874339,14.4659381 4.93944112,14.5045564 4.99013884,14.5431746 C5.93778711,15.2660065 7.03411912,15.776139 8.20253077,16.0379277 C8.21174854,16.0401993 8.21866187,16.042471 8.22672741,16.0436068 L8.22672741,16.0436068 Z M13.2918906,18.6616963 C13.2561717,18.6616963 13.2227573,18.6423872 13.205474,18.6105839 L11.7790245,16.0515576 C12.8798954,15.8140872 13.9193089,15.3555179 14.83241,14.7044626 C14.8543022,14.6896968 14.8761944,14.674931 14.8969343,14.6590293 C14.941871,14.6272261 14.9856554,14.5931512 15.0294398,14.5602121 C15.088203,14.5159147 15.1469663,14.4704815 15.2045773,14.4239124 C15.2322306,14.4023316 15.2598839,14.3807509 15.286385,14.3580342 C15.4523048,14.2228704 15.6124635,14.0808916 15.7680134,13.9332336 L18.4918636,18.6605604 L13.2918906,18.6605604 L13.2918906,18.6616963 Z" id="Shape" fill="#636057"></path>
                                        </g>
                                    </g>
                                </g>
                            </g>
                        </g>
                    </g>
                </g>
            </g>
        </g>
    </g>
</svg>