<?xml version="1.0" encoding="UTF-8"?>
<svg width="17px" height="21px" viewBox="0 0 17 21" version="1.1" xmlns="http://www.w3.org/2000/svg" xmlns:xlink="http://www.w3.org/1999/xlink">
    <!-- Generator: Sketch 58 (84663) - https://sketch.com -->
    <title>icon_good03</title>
    <desc>Created with Sketch.</desc>
    <g id="首頁" stroke="none" stroke-width="1" fill="none" fill-rule="evenodd">
        <g id="專案介紹-mobile" transform="translate(-206.000000, -642.000000)" fill-rule="nonzero">
            <g id="mobile-top">
                <g id="product-sm">
                    <g transform="translate(0.000000, 65.000000)">
                        <g id="product_info">
                            <g transform="translate(12.000000, 388.457008)">
                                <g id="icon_good-group" transform="translate(0.000000, 189.222615)">
                                    <g id="Group-6" transform="translate(194.000000, 0.000000)">
                                        <g id="icon_good03">
                                            <path d="M13.4141705,3.20376914 C13.4141705,3.20376914 14.4699065,9.91786321 10.7742562,12.3004673 C7.07860591,14.6830714 2.98662383,12.7057263 1.66666667,11.4273391 C3.59433257,14.1355164 4.4938334,14.8105686 4.4938334,14.8105686 L4.71784702,16.819788 L11.7415355,16.819788 L11.9322343,14.5965554 C11.9322343,14.5965554 19.6176246,9.99071876 13.4141705,3.20376914 Z" id="Path" fill="#FFDF65"></path>
                                            <path d="M14.1831599,2.34647512 C12.5810108,0.801616907 10.4561416,-0.034464487 8.20938249,0.00108904283 C6.06107292,0.0320550204 4.02762114,0.87043019 2.48407302,2.36253155 C0.940524894,3.85463292 0.0591671194,5.8341617 0.00291024017,7.93526062 C-0.0732709504,10.7508708 1.3507313,13.4116511 3.74047665,14.9588031 L3.74047665,16.9325974 C3.74047665,17.3122174 4.05574958,17.6207303 4.44368764,17.6207303 L12.2235452,17.6207303 C12.6114833,17.6207303 12.9267562,17.3122174 12.9267562,16.9325974 L12.9267562,14.9588031 C15.2438364,13.4563797 16.6666667,10.8850567 16.6666667,8.15546313 C16.6666667,5.95458495 15.7853089,3.89248022 14.1831599,2.34647512 Z M11.8649076,13.9873889 C11.6513776,14.1113305 11.5204247,14.3362382 11.5203342,14.5791831 L11.5203342,16.2444646 L5.14689863,16.2444646 L5.14689863,14.6307931 C5.14689863,14.3589806 4.99922432,14.1032246 4.76130461,13.9633043 C2.62823127,12.7040212 1.34252718,10.4079513 1.40933222,7.97196104 C1.50543772,4.38793586 4.56557755,1.43011156 8.23047882,1.37735471 C10.1033641,1.35327006 11.8649076,2.04369667 13.1963204,3.32706441 C14.5277332,4.61157903 15.2614167,6.32617668 15.2614167,8.15546313 C15.2602447,10.5352559 13.9593044,12.7693938 11.8649076,13.9873889 L11.8649076,13.9873889 Z" id="Shape" fill="#636057"></path>
                                            <path d="M4.14454804,6.52833307 C4.1457648,6.52374637 4.14819831,6.51915967 4.14941506,6.51571964 C4.27717426,6.13731672 4.05937524,5.80822085 3.7807385,5.67749985 C3.45726729,5.52725504 3.06584528,5.62227648 2.85965547,5.90110157 C2.82801986,5.94467524 2.79516749,6.01232909 2.76231513,6.10062311 L2.75866486,6.09947643 L2.76231513,6.10062311 L2.76231513,6.10176978 L2.75866486,6.10062311 C2.75136434,6.12240994 2.74528057,6.14419678 2.74041355,6.16713029 C2.60657057,6.57649344 2.48976216,7.31495247 2.50071295,7.98231762 C2.52504803,9.41336865 3.05798643,10.6368714 4.04355743,11.5186649 C4.18386883,11.6443874 4.37146693,11.7123737 4.56501083,11.7076417 C4.75855473,11.7029097 4.94215981,11.6258478 5.0753651,11.493438 C5.35278509,11.2182359 5.3418343,10.7824992 5.04981326,10.5210572 C3.41692896,9.06019259 4.07762655,6.74849477 4.14454804,6.52833307 L4.14454804,6.52833307 Z M11.7699474,18.6475465 L4.12873024,18.6475465 C3.72598455,18.6475465 3.39867764,18.9560022 3.39867764,19.3355518 C3.39867764,19.7151014 3.72598455,20.0235571 4.12873024,20.0235571 L11.7699474,20.0235571 C12.1726931,20.0235571 12.5,19.7151014 12.5,19.3355518 C12.5,18.9560022 12.1739098,18.6475465 11.7699474,18.6475465 L11.7699474,18.6475465 Z" id="Shape" fill="#636057"></path>
                                        </g>
                                    </g>
                                </g>
                            </g>
                        </g>
                    </g>
                </g>
            </g>
        </g>
    </g>
</svg>