<?xml version="1.0" encoding="UTF-8"?>
<svg width="21px" height="21px" viewBox="0 0 21 21" version="1.1" xmlns="http://www.w3.org/2000/svg" xmlns:xlink="http://www.w3.org/1999/xlink">
    <!-- Generator: Sketch 58 (84663) - https://sketch.com -->
    <title>icon_good02</title>
    <desc>Created with Sketch.</desc>
    <g id="首頁" stroke="none" stroke-width="1" fill="none" fill-rule="evenodd">
        <g id="專案介紹-mobile" transform="translate(-108.000000, -642.000000)" fill-rule="nonzero">
            <g id="mobile-top">
                <g id="product-sm">
                    <g transform="translate(0.000000, 65.000000)">
                        <g id="product_info">
                            <g transform="translate(12.000000, 388.457008)">
                                <g id="icon_good-group" transform="translate(0.000000, 189.222615)">
                                    <g id="Group-7" transform="translate(96.000000, 0.000000)">
                                        <g id="icon_good02">
                                            <path d="M2.55460255,18.4216726 L5,18.4216726 L5,8.00942285 L2.55460255,8.00942285 C1.60433071,8.00942285 0.833333333,8.72585706 0.833333333,9.60887855 L0.833333333,16.8233057 C0.833333333,17.7063272 1.60433071,18.4216726 2.55460255,18.4216726 Z" id="Path" fill="#FFDF65"></path>
                                            <path d="M20.3153373,7.8943146 C19.8267091,7.26325375 19.0789778,6.90116965 18.2661751,6.90116965 L14.2281897,6.90116965 C14.1572026,6.90116965 14.1193428,6.85863914 14.101596,6.83335072 C14.0755674,6.79426863 14.072018,6.75403706 14.0909479,6.71495497 C15.075303,4.64935141 14.6647607,3.0033056 14.3323042,2.20672059 C13.93241,1.24920931 13.2532996,0.530788483 12.4665255,0.237672785 C11.6099473,-0.0818807993 10.8255393,-0.0795818526 10.1357809,0.246868572 C9.0662413,0.751487361 8.27355154,1.96877961 7.56722946,4.19186102 C7.26316787,5.14707336 6.50242231,5.97354468 5.30628895,6.65058446 C5.0164642,6.81473526 4.68698822,6.90120759 4.35151188,6.90116965 L2.56500211,6.90116965 C1.15117484,6.90116965 0,8.01845772 0,9.39322782 L0,17.531499 C0,18.9051196 1.14999172,20.0235571 2.56500211,20.0235571 L15.860894,20.0235571 C16.9978714,20.0235571 18.0118045,19.2821468 18.325331,18.2200335 L20.7317952,10.0817623 C20.9565878,9.32310994 20.8039654,8.52537546 20.3153373,7.8943146 Z M1.41974286,17.5326484 L1.41974286,9.39437729 C1.41974286,8.78055854 1.93321653,8.28168711 2.56500211,8.28168711 L4.25922859,8.28168711 L4.25922859,18.5074018 C4.25922859,18.5545302 4.26396107,18.6005091 4.27342602,18.6453386 L2.56500211,18.6453386 C1.93321653,18.6453386 1.41974286,18.1464672 1.41974286,17.5326484 Z M19.3676589,9.70128667 L16.9611947,17.8395578 C16.8204036,18.3131408 16.3684521,18.6441891 15.860894,18.6441891 L5.66359091,18.6441891 C5.67305586,18.5993597 5.67778833,18.5533807 5.67778833,18.5062523 L5.67778833,8.20352293 C5.67778833,8.14030189 5.66832338,8.07937981 5.65175972,8.02190614 C5.77835345,7.96903037 5.90139784,7.91040723 6.02089286,7.8425883 C7.53528525,6.98623068 8.51254158,5.89423102 8.92426702,4.59877458 C9.48151609,2.84467829 10.0979211,1.79750809 10.7569184,1.48715029 C10.9651474,1.38829558 11.3165337,1.28599246 11.9577843,1.52508291 C12.3659603,1.67796286 12.7729533,2.13775219 13.0178589,2.72513306 C13.2639477,3.31481288 13.5632768,4.54245039 12.8037144,6.13562041 C12.581288,6.60230658 12.6203309,7.1402601 12.9066457,7.57591049 C13.1965099,8.01730825 13.6910537,8.28053764 14.2293728,8.28053764 L18.2673582,8.28053764 C18.6305757,8.28053764 18.9630322,8.44261338 19.1819092,8.72423434 C19.3989599,9.0032316 19.4678063,9.36536721 19.3676589,9.70128667 L19.3676589,9.70128667 Z" id="Shape" fill="#636057"></path>
                                        </g>
                                    </g>
                                </g>
                            </g>
                        </g>
                    </g>
                </g>
            </g>
        </g>
    </g>
</svg>